#!OML:ASF F:\VICON\USERDATA\INSTALL\rory3\rory3.ASF
:FULLY-SPECIFIED
:DEGREES
469
root 1.2832 17.0439 0.878081 -3.61316 -33.1404 -10.3693
lowerback 8.12369 4.72115 2.96092
upperback 3.93024 6.4404 -0.824408
thorax -0.0375877 3.25868 -2.98999
lowerneck -0.49185 2.22806 -1.08708
upperneck 27.2035 -0.18322 13.1745
head 8.47414 0.883431 4.67515
rclavicle -9.18385e-014 -1.59028e-015
rhumerus 38.6761 7.95071 -94.5092
rradius 91.8428
rwrist -55.8659
rhand -5.86534 9.89487
rfingers 7.12502
rthumb 19.9618 -19.0998
lclavicle -9.18385e-014 -1.59028e-015
lhumerus 32.4264 -12.03 79.8952
lradius 110.77
lwrist 31.5687
lhand -4.40499 15.9941
lfingers 7.12502
lthumb 21.365 44.8363
rfemur 6.67805 12.6714 19.8078
rtibia 49.8249
rfoot -15.4039 10.0352
rtoes -19.7876
lfemur -26.1082 -13.6025 4.76913
ltibia 48.1729
lfoot -10.7745 -8.34057
ltoes -6.55712
470
root 1.28624 17.1354 0.835909 -3.1528 -33.8236 -10.7341
lowerback 7.85193 4.59663 3.2652
upperback 4.04022 6.28704 -0.78084
thorax 0.243423 3.19288 -3.07039
lowerneck -0.149075 2.27392 -1.11888
upperneck 27.1678 -0.128111 13.2039
head 8.39241 0.889509 4.68576
rclavicle 1.48095e-014 -2.54444e-014
rhumerus 38.5565 8.00126 -94.499
rradius 92.1192
rwrist -56.3972
rhand -6.19696 9.77891
rfingers 7.12502
rthumb 19.643 -19.2487
lclavicle 1.48095e-014 -2.54444e-014
lhumerus 32.2874 -11.7377 79.3502
lradius 111.322
lwrist 31.7003
lhand -4.89897 16.0084
lfingers 7.12502
lthumb 20.8905 44.9035
rfemur 6.41718 12.8716 19.892
rtibia 48.9208
rfoot -14.4427 10.404
rtoes -18.9954
lfemur -25.3076 -13.2006 5.13823
ltibia 46.7754
lfoot -10.3685 -7.58332
ltoes -10.0346
471
root 1.29018 17.2306 0.791011 -2.67206 -34.5166 -11.0048
lowerback 7.62745 4.46798 3.40498
upperback 4.1058 6.11729 -0.710951
thorax 0.42909 3.11367 -3.04147
lowerneck 0.318818 2.37459 -1.23235
upperneck 26.9827 0.042139 13.1889
head 8.22476 0.93052 4.69258
rclavicle 1.16289e-014 -1.11319e-014
rhumerus 38.4034 8.12103 -94.4347
rradius 92.5088
rwrist -56.9423
rhand -6.53274 9.46743
rfingers 7.12502
rthumb 19.3202 -19.5928
lclavicle 1.16289e-014 -1.11319e-014
lhumerus 32.0463 -11.3462 78.7248
lradius 112.063
lwrist 31.7569
lhand -5.52203 16.4015
lfingers 7.12502
lthumb 20.2918 45.3615
rfemur 6.02983 12.9774 19.7611
rtibia 48.0871
rfoot -13.3218 10.985
rtoes -17.5302
lfemur -24.5195 -12.8054 5.4315
ltibia 45.2278
lfoot -9.77414 -6.78503
ltoes -12.749
472
root 1.29487 17.3389 0.745144 -2.44678 -35.1645 -10.4908
lowerback 7.34475 4.41223 2.83819
upperback 4.08038 5.99875 -0.805755
thorax 0.498666 3.04623 -2.79734
lowerneck 0.683789 2.46039 -1.17591
upperneck 26.983 0.202015 12.9669
head 8.14726 0.97479 4.6068
rclavicle 6.06293e-014 6.36111e-015
rhumerus 38.232 8.12423 -94.3575
rradius 92.909
rwrist -57.5611
rhand -7.09726 9.6201
rfingers 7.12502
rthumb 18.7773 -19.4936
lclavicle 6.06293e-014 6.36111e-015
lhumerus 31.5792 -11.0467 78.2471
lradius 112.831
lwrist 31.8187
lhand -5.93315 16.6426
lfingers 7.12502
lthumb 19.8966 45.6441
rfemur 5.35924 12.9045 18.7275
rtibia 47.3264
rfoot -12.0499 11.6376
rtoes -16.2543
lfemur -23.8503 -12.5402 5.03887
ltibia 43.5492
lfoot -8.96383 -5.9777
ltoes -13.0375
473
root 1.30496 17.4518 0.697225 -2.55334 -35.7022 -9.21145
lowerback 7.02808 4.34355 1.67986
upperback 3.99191 5.83079 -1.05864
thorax 0.477152 2.94319 -2.38817
lowerneck 0.890888 2.53891 -1.21567
upperneck 27.1529 0.320477 12.813
head 8.15892 1.00549 4.56994
rclavicle 1.95803e-014 -3.49861e-014
rhumerus 38.0438 8.16657 -94.2931
rradius 93.2511
rwrist -58.2035
rhand -7.63013 9.79352
rfingers 7.12502
rthumb 18.2647 -19.369
lclavicle 1.95803e-014 -3.49861e-014
lhumerus 31.1053 -10.6838 77.8
lradius 113.393
lwrist 31.8763
lhand -6.2702 16.3656
lfingers 7.12502
lthumb 19.5726 45.4004
rfemur 4.47284 12.6143 16.8877
rtibia 46.6225
rfoot -10.8417 12.2578
rtoes -15.6627
lfemur -23.3088 -12.3699 3.93864
ltibia 41.8062
lfoot -8.06466 -5.02685
ltoes -13.8981
474
root 1.31917 17.558 0.645078 -2.50329 -36.2584 -8.3855
lowerback 6.90801 4.21401 1.00619
upperback 3.90971 5.61641 -1.23384
thorax 0.398407 2.82433 -2.17923
lowerneck 1.42345 2.75407 -0.842997
upperneck 26.8249 0.76564 12.2193
head 7.92825 1.17358 4.29768
rclavicle 6.85807e-015 -2.8625e-014
rhumerus 37.9211 8.31512 -94.2009
rradius 93.6466
rwrist -58.8906
rhand -8.22743 9.69332
rfingers 7.12502
rthumb 17.69 -19.522
lclavicle 6.85807e-015 -2.8625e-014
lhumerus 30.717 -10.2052 77.1543
lradius 113.89
lwrist 31.9777
lhand -6.75913 15.9187
lfingers 7.12502
lthumb 19.1025 45.0006
rfemur 3.62394 12.3555 15.5665
rtibia 45.9573
rfoot -9.9132 12.5925
rtoes -15.598
lfemur -22.7758 -11.9999 3.28056
ltibia 40.0856
lfoot -6.9476 -4.32403
ltoes -15.0067
475
root 1.33545 17.652 0.59614 -2.18361 -36.8679 -8.18207
lowerback 6.87698 4.09223 0.850936
upperback 3.87845 5.44447 -1.23247
thorax 0.360426 2.73473 -2.08165
lowerneck 1.45915 2.8552 -0.947292
upperneck 26.8673 0.941945 12.0285
head 7.92294 1.22691 4.25976
rclavicle -7.85199e-015 1.11319e-014
rhumerus 37.8561 8.443 -93.9551
rradius 94.1556
rwrist -59.6738
rhand -8.93217 9.25571
rfingers 7.12502
rthumb 17.0117 -20.0194
lclavicle -7.85199e-015 1.11319e-014
lhumerus 30.2665 -9.76161 76.6203
lradius 114.519
lwrist 32.3042
lhand -7.35178 16.2827
lfingers 7.12502
lthumb 18.5325 45.4199
rfemur 2.91948 12.1759 14.8873
rtibia 45.3289
rfoot -9.26138 12.7109
rtoes -15.7213
lfemur -22.2608 -11.6191 3.22555
ltibia 38.4959
lfoot -5.62789 -3.76664
ltoes -14.3362
476
root 1.35139 17.7359 0.545911 -1.91035 -37.5241 -7.93983
lowerback 6.8827 4.01402 0.550144
upperback 3.85993 5.32209 -1.16446
thorax 0.298366 2.66666 -1.84083
lowerneck 1.02871 2.85479 -1.44346
upperneck 27.2854 0.881057 12.1737
head 8.13621 1.17987 4.41932
rclavicle 2.15681e-014 -9.54166e-015
rhumerus 37.8037 8.57605 -93.4846
rradius 94.615
rwrist -60.4153
rhand -9.30887 9.18683
rfingers 7.12502
rthumb 16.6491 -20.1191
lclavicle 2.15681e-014 -9.54166e-015
lhumerus 29.7226 -9.31471 76.2833
lradius 115.118
lwrist 32.7333
lhand -7.78988 16.9497
lfingers 7.12502
lthumb 18.111 46.1265
rfemur 2.2509 12.0936 14.2421
rtibia 44.7541
rfoot -8.95609 12.3114
rtoes -16.5642
lfemur -21.824 -11.3027 3.19042
ltibia 37.1441
lfoot -4.35597 -3.24123
ltoes -12.0235
477
root 1.36665 17.8091 0.491501 -1.87313 -38.1989 -7.51497
lowerback 7.00999 3.914 0.139572
upperback 3.88696 5.16181 -1.1619
thorax 0.213351 2.57836 -1.61092
lowerneck 0.88794 3.04205 -1.45699
upperneck 27.2437 1.21685 11.8419
head 8.12521 1.31011 4.3253
rclavicle 2.78299e-014 -3.49861e-014
rhumerus 37.7926 8.78993 -92.9972
rradius 95.0594
rwrist -61.2432
rhand -9.25751 8.92361
rfingers 7.12502
rthumb 16.6985 -20.3782
lclavicle 2.78299e-014 -3.49861e-014
lhumerus 29.1516 -8.78224 75.816
lradius 115.504
lwrist 33.1584
lhand -8.02518 16.5897
lfingers 7.12502
lthumb 17.8846 45.7873
rfemur 1.69731 12.1326 13.5645
rtibia 44.2691
rfoot -9.06752 11.1751
rtoes -17.4479
lfemur -21.3625 -10.8498 2.96721
ltibia 36.0886
lfoot -3.33833 -2.79739
ltoes -10.2995
478
root 1.38095 17.8761 0.43449 -1.6736 -38.8934 -7.27889
lowerback 7.10745 3.79169 -0.0989828
upperback 3.83575 4.98271 -1.11961
thorax 0.0771525 2.48338 -1.4343
lowerneck 0.876998 3.30231 -1.5387
upperneck 27.1731 1.63008 11.654
head 8.07171 1.47779 4.29325
rclavicle -1.45113e-014 -2.06736e-014
rhumerus 37.714 9.07923 -92.4503
rradius 95.6134
rwrist -62.1269
rhand -9.35806 7.684
rfingers 7.12502
rthumb 16.6017 -21.6259
lclavicle -1.45113e-014 -2.06736e-014
lhumerus 28.3574 -8.30613 75.3798
lradius 115.829
lwrist 33.398
lhand -8.53111 16.123
lfingers 7.12502
lthumb 17.3978 45.3644
rfemur 1.08427 12.2376 13.1356
rtibia 43.9097
rfoot -9.55134 9.22536
rtoes -17.3403
lfemur -21.095 -10.2427 2.89984
ltibia 35.3764
lfoot -2.64804 -2.44726
ltoes -10.4527
479
root 1.39655 17.931 0.376746 -1.33842 -39.5994 -7.11866
lowerback 7.10408 3.67391 -0.257055
upperback 3.75852 4.81599 -1.07916
thorax -0.0214328 2.39665 -1.29773
lowerneck 0.908828 3.47014 -1.68951
upperneck 26.9827 1.91488 11.5311
head 7.97683 1.58057 4.28245
rclavicle 7.15625e-015 1.11319e-014
rhumerus 37.6675 9.44491 -91.87
rradius 96.158
rwrist -62.7025
rhand -9.63596 7.03836
rfingers 7.12502
rthumb 16.3342 -22.2938
lclavicle 7.15625e-015 1.11319e-014
lhumerus 27.5067 -7.91851 75.0009
lradius 116.176
lwrist 33.5872
lhand -9.18726 16.1602
lfingers 7.12502
lthumb 16.7662 45.4562
rfemur 0.369739 12.3967 12.8087
rtibia 43.7079
rfoot -10.6137 6.32714
rtoes -16.8714
lfemur -21.0893 -9.72775 2.94373
ltibia 35.0634
lfoot -2.39216 -2.48745
ltoes -11.2569
480
root 1.41284 17.9681 0.322333 -1.0754 -40.2502 -6.90436
lowerback 7.00982 3.54232 -0.310264
upperback 3.83076 4.6369 -1.18934
thorax 0.106473 2.30706 -1.35941
lowerneck 0.693587 3.57515 -1.67283
upperneck 26.6271 2.11738 11.4
head 7.88158 1.66542 4.23427
rclavicle 3.1408e-014 1.11319e-014
rhumerus 37.8688 9.78974 -91.3853
rradius 96.5429
rwrist -62.9508
rhand -9.76786 8.40118
rfingers 7.12502
rthumb 16.2072 -20.9413
lclavicle 3.1408e-014 1.11319e-014
lhumerus 26.97 -7.61359 74.4051
lradius 116.445
lwrist 33.7587
lhand -9.58271 16.3875
lfingers 7.12502
lthumb 16.3855 45.7154
rfemur -0.305916 12.5617 12.4943
rtibia 43.6918
rfoot -12.3362 2.47591
rtoes -16.444
lfemur -21.2297 -9.27998 2.94101
ltibia 35.1856
lfoot -2.19205 -3.26985
ltoes -11.4532
481
root 1.42974 17.9891 0.264829 -0.688401 -40.897 -6.87299
lowerback 6.95136 3.41988 -0.203509
upperback 3.91364 4.47943 -1.27783
thorax 0.236342 2.23061 -1.49153
lowerneck 0.138016 3.69716 -1.73755
upperneck 26.4068 2.30439 11.4208
head 7.89021 1.76077 4.26596
rclavicle -1.11319e-014 6.36111e-015
rhumerus 38.1295 10.123 -90.8404
rradius 96.8185
rwrist -63.0684
rhand -9.71698 10.5853
rfingers 7.12502
rthumb 16.2562 -18.7532
lclavicle -1.11319e-014 6.36111e-015
lhumerus 26.4906 -7.37706 73.8123
lradius 116.682
lwrist 33.9993
lhand -9.92835 16.5034
lfingers 7.12502
lthumb 16.0526 45.8584
rfemur -1.0653 12.8197 12.4075
rtibia 43.8888
rfoot -14.0391 -1.617
rtoes -14.6749
lfemur -21.5447 -8.73533 3.09563
ltibia 35.7566
lfoot -1.71336 -4.47838
ltoes -10.4108
